<svg width="190" height="159" viewBox="0 0 190 159" fill="none" xmlns="http://www.w3.org/2000/svg">
<g filter="url(#filter0_d)">
<path d="M169.572 58.2755L169.575 58.2732L137.91 17.1086C137.72 16.8612 137.475 16.6608 137.194 16.5229C136.914 16.3849 136.606 16.3132 136.293 16.3132H53.7082C53.3955 16.3132 53.087 16.3849 52.8066 16.5229C52.5262 16.6608 52.2813 16.8612 52.091 17.1086L20.4246 58.2732L20.4276 58.2755C20.123 58.6647 19.9724 59.1519 20.0042 59.6446C20.036 60.1373 20.2481 60.6012 20.6002 60.9482L93.5581 133.718C93.7474 133.906 93.9721 134.056 94.2195 134.158C94.4668 134.261 94.7319 134.313 94.9997 134.313C95.2674 134.313 95.5325 134.261 95.7798 134.158C96.0272 134.056 96.2519 133.906 96.4412 133.718L169.4 60.9482C169.752 60.6012 169.964 60.1373 169.996 59.6446C170.028 59.1519 169.877 58.6647 169.572 58.2755ZM133.808 20.3796L126.947 54.8337L99.2465 20.3796H133.808ZM123.846 57.4775H66.1549L94.9997 21.5962L123.846 57.4775ZM90.7528 20.3796L63.0526 54.8337L56.1914 20.3796H90.7528ZM52.5863 23.1455L59.4231 57.4775H26.1745L52.5863 23.1455ZM26.9624 61.5439H60.5918L88.5104 122.931L26.9624 61.5439ZM94.9997 127.358L65.0677 61.5439H124.932L94.9997 127.358ZM101.489 122.931L129.407 61.5439H163.036L101.489 122.931ZM130.576 57.4775L137.413 23.1455L163.824 57.4775H130.576Z" fill="#FF0000"/>
</g>
<defs>
<filter id="filter0_d" x="0" y="0.313232" width="190" height="158" filterUnits="userSpaceOnUse" color-interpolation-filters="sRGB">
<feFlood flood-opacity="0" result="BackgroundImageFix"/>
<feColorMatrix in="SourceAlpha" type="matrix" values="0 0 0 0 0 0 0 0 0 0 0 0 0 0 0 0 0 0 127 0"/>
<feOffset dy="4"/>
<feGaussianBlur stdDeviation="10"/>
<feColorMatrix type="matrix" values="0 0 0 0 1 0 0 0 0 0 0 0 0 0 0 0 0 0 0.4 0"/>
<feBlend mode="normal" in2="BackgroundImageFix" result="effect1_dropShadow"/>
<feBlend mode="normal" in="SourceGraphic" in2="effect1_dropShadow" result="shape"/>
</filter>
</defs>
</svg>
