<svg width="165" height="158" viewBox="0 0 165 158" fill="none" xmlns="http://www.w3.org/2000/svg">
<g filter="url(#filter0_d)">
<path d="M71.2514 118.545C45.5942 117.593 25.0012 97.0351 24.0021 71.3798H31.8V67.4466H24.0021C24.9855 41.8367 45.5233 21.3008 71.1332 20.3174V26.1466H75.0664V20.3174C100.326 21.2948 120.715 41.2979 122.172 66.534L114.502 58.864L111.721 61.6448L122.699 72.6227C122.905 72.8726 123.173 73.0673 123.474 73.1872C123.551 73.2107 123.629 73.2284 123.708 73.2441C123.843 73.2932 123.983 73.3266 124.125 73.3443H124.182H124.237C124.386 73.3326 124.534 73.3031 124.677 73.2579C124.758 73.248 124.838 73.2323 124.917 73.2127C125.182 73.1182 125.426 72.9668 125.627 72.7682L136.755 61.6446L133.974 58.8638L126.113 66.7186C124.709 38.5288 101.465 16.3821 73.2397 16.3407C73.1906 16.3388 73.1491 16.3132 73.1 16.3132C73.0509 16.3132 73.0094 16.3388 72.9603 16.3407C43.7436 16.3801 20.0668 40.0568 20.0274 69.2736C20.0274 69.3227 20 69.3641 20 69.4132C20 69.4623 20.0256 69.5038 20.0274 69.5529C20.0765 98.0499 42.6283 121.416 71.1058 122.476H71.1786L71.2514 118.545Z" fill="#FF0000"/>
<path fill-rule="evenodd" clip-rule="evenodd" d="M96.7414 42.9911L75.6076 64.123C74.0107 63.4111 72.1877 63.4111 70.5906 64.123L60.5841 54.1165L57.8032 56.8973L67.7899 66.884C66.3877 69.8202 67.6306 73.3346 70.5668 74.737C72.8206 75.8128 75.5071 75.3526 77.2711 73.5865C79.0451 71.8264 79.5032 69.132 78.4078 66.8861L99.522 45.7719L96.7414 42.9911ZM71.7097 70.8036C72.4866 71.5471 73.7136 71.5471 74.4905 70.8036C75.2596 70.0348 75.2596 68.7898 74.4905 68.0228C73.7235 67.2537 72.4788 67.2558 71.7097 68.0228C70.9406 68.7898 70.9406 70.0366 71.7097 70.8036Z" fill="#FF0000"/>
<path d="M108.885 130.163C109.258 130.163 109.55 130.28 109.76 130.513C109.97 130.723 110.075 131.003 110.075 131.353V133.313H78.1195V132.123C78.1195 131.867 78.1779 131.61 78.2945 131.353C78.4345 131.073 78.6095 130.84 78.8195 130.653L95.7245 113.538C97.1245 112.115 98.4195 110.738 99.6095 109.408C100.8 108.078 101.826 106.737 102.69 105.383C103.576 104.03 104.265 102.642 104.755 101.218C105.245 99.7949 105.49 98.2782 105.49 96.6682C105.49 94.8482 105.186 93.2732 104.58 91.9432C103.973 90.5899 103.168 89.4816 102.165 88.6182C101.161 87.7549 99.9945 87.1132 98.6645 86.6932C97.3345 86.2732 95.9579 86.0632 94.5345 86.0632C92.9712 86.0632 91.5245 86.3082 90.1945 86.7982C88.8879 87.2649 87.7212 87.9299 86.6945 88.7932C85.6912 89.6332 84.8512 90.6482 84.1745 91.8382C83.5212 93.0049 83.0662 94.2882 82.8095 95.6882C82.6462 96.2016 82.4245 96.5399 82.1445 96.7032C81.8879 96.8666 81.5262 96.9249 81.0595 96.8782L79.3445 96.5982C79.6479 94.4749 80.2312 92.5849 81.0945 90.9282C81.9579 89.2716 83.0545 87.8716 84.3845 86.7282C85.7145 85.5849 87.2545 84.7216 89.0045 84.1382C90.7545 83.5316 92.6445 83.2282 94.6745 83.2282C96.5645 83.2282 98.3612 83.5082 100.065 84.0682C101.791 84.6049 103.308 85.4332 104.615 86.5532C105.945 87.6499 106.995 89.0382 107.765 90.7182C108.535 92.3749 108.92 94.3232 108.92 96.5632C108.92 98.4299 108.628 100.168 108.045 101.778C107.485 103.365 106.715 104.893 105.735 106.363C104.755 107.833 103.611 109.268 102.305 110.668C101.021 112.045 99.6679 113.457 98.2445 114.903L82.7395 130.723C83.4862 130.537 84.2562 130.397 85.0495 130.303C85.8662 130.21 86.6829 130.163 87.4995 130.163H108.885ZM132.655 116.443V90.5082C132.655 90.1116 132.667 89.6799 132.69 89.2132C132.737 88.7466 132.783 88.2682 132.83 87.7782L111.41 116.443H132.655ZM144.66 116.443V118.263C144.66 118.52 144.578 118.73 144.415 118.893C144.275 119.033 144.042 119.103 143.715 119.103H135.595V133.313H132.655V119.103H109.24C108.89 119.103 108.622 119.033 108.435 118.893C108.248 118.73 108.12 118.52 108.05 118.263L107.735 116.618L132.62 83.7182H135.595V116.443H144.66Z" fill="#FF0000"/>
</g>
<defs>
<filter id="filter0_d" x="0" y="0.313232" width="164.66" height="157" filterUnits="userSpaceOnUse" color-interpolation-filters="sRGB">
<feFlood flood-opacity="0" result="BackgroundImageFix"/>
<feColorMatrix in="SourceAlpha" type="matrix" values="0 0 0 0 0 0 0 0 0 0 0 0 0 0 0 0 0 0 127 0"/>
<feOffset dy="4"/>
<feGaussianBlur stdDeviation="10"/>
<feColorMatrix type="matrix" values="0 0 0 0 1 0 0 0 0 0 0 0 0 0 0 0 0 0 0.4 0"/>
<feBlend mode="normal" in2="BackgroundImageFix" result="effect1_dropShadow"/>
<feBlend mode="normal" in="SourceGraphic" in2="effect1_dropShadow" result="shape"/>
</filter>
</defs>
</svg>
