<svg width="258" height="104" viewBox="0 0 258 104" fill="none" xmlns="http://www.w3.org/2000/svg">
<path d="M157.728 41.79C158.226 41.79 158.664 41.724 159.042 41.592C159.426 41.46 159.747 41.277 160.005 41.043C160.269 40.803 160.467 40.518 160.599 40.188C160.731 39.858 160.797 39.495 160.797 39.099C160.797 38.277 160.542 37.635 160.032 37.173C159.528 36.711 158.76 36.48 157.728 36.48H155.658V41.79H157.728ZM157.728 35.103C158.544 35.103 159.252 35.199 159.852 35.391C160.458 35.577 160.959 35.844 161.355 36.192C161.751 36.54 162.045 36.96 162.237 37.452C162.435 37.944 162.534 38.493 162.534 39.099C162.534 39.699 162.429 40.248 162.219 40.746C162.009 41.244 161.7 41.673 161.292 42.033C160.89 42.393 160.389 42.675 159.789 42.879C159.195 43.077 158.508 43.176 157.728 43.176H155.658V48H153.921V35.103H157.728ZM172.688 46.578L172.679 48H164.732V35.103H172.679V36.525H166.478V40.809H171.5V42.177H166.478V46.578H172.688ZM185.417 48H183.851C183.677 48 183.527 47.955 183.401 47.865C183.281 47.769 183.167 47.631 183.059 47.451L179.648 42.726C179.492 42.492 179.324 42.33 179.144 42.24C178.964 42.144 178.718 42.096 178.406 42.096H176.858V48H175.121V35.103H176.858V40.755H178.199C178.469 40.755 178.697 40.713 178.883 40.629C179.075 40.545 179.264 40.38 179.45 40.134L182.825 35.598C182.915 35.454 183.023 35.337 183.149 35.247C183.281 35.151 183.434 35.103 183.608 35.103H185.075L181.178 40.404C180.884 40.818 180.506 41.103 180.044 41.259C180.362 41.343 180.629 41.478 180.845 41.664C181.067 41.844 181.277 42.096 181.475 42.42L185.417 48ZM197.067 48H195.321V36.48H191.055C190.971 38.136 190.857 39.573 190.713 40.791C190.575 42.009 190.404 43.05 190.2 43.914C190.002 44.778 189.774 45.483 189.516 46.029C189.264 46.569 188.985 46.995 188.679 47.307C188.379 47.619 188.055 47.832 187.707 47.946C187.359 48.06 186.99 48.117 186.6 48.117C186.276 48.117 186.027 48.087 185.853 48.027C185.679 47.973 185.592 47.889 185.592 47.775V46.668H186.222C186.462 46.668 186.699 46.623 186.933 46.533C187.167 46.437 187.392 46.248 187.608 45.966C187.824 45.684 188.028 45.282 188.22 44.76C188.412 44.238 188.586 43.548 188.742 42.69C188.898 41.832 189.033 40.785 189.147 39.549C189.261 38.307 189.348 36.825 189.408 35.103H197.067V48ZM207.194 43.212L205.169 37.965C205.109 37.809 205.046 37.629 204.98 37.425C204.914 37.215 204.851 36.993 204.791 36.759C204.665 37.245 204.536 37.65 204.404 37.974L202.379 43.212H207.194ZM210.83 48H209.48C209.324 48 209.198 47.961 209.102 47.883C209.006 47.805 208.934 47.706 208.886 47.586L207.68 44.472H201.893L200.687 47.586C200.651 47.694 200.582 47.79 200.48 47.874C200.378 47.958 200.249 48 200.093 48H198.752L203.909 35.103H205.673L210.83 48ZM225.928 35.103V48H224.398V38.523C224.398 38.397 224.401 38.262 224.407 38.118C224.419 37.974 224.431 37.827 224.443 37.677L220.015 45.741C219.877 46.011 219.667 46.146 219.385 46.146H219.133C218.851 46.146 218.641 46.011 218.503 45.741L213.985 37.641C214.021 37.959 214.039 38.253 214.039 38.523V48H212.509V35.103H213.796C213.952 35.103 214.072 35.118 214.156 35.148C214.24 35.178 214.321 35.262 214.399 35.4L218.854 43.338C218.926 43.482 218.995 43.632 219.061 43.788C219.133 43.944 219.199 44.103 219.259 44.265C219.319 44.103 219.382 43.944 219.448 43.788C219.514 43.626 219.586 43.473 219.664 43.329L224.038 35.4C224.11 35.262 224.188 35.178 224.272 35.148C224.362 35.118 224.485 35.103 224.641 35.103H225.928ZM236.057 43.212L234.032 37.965C233.972 37.809 233.909 37.629 233.843 37.425C233.777 37.215 233.714 36.993 233.654 36.759C233.528 37.245 233.399 37.65 233.267 37.974L231.242 43.212H236.057ZM239.693 48H238.343C238.187 48 238.061 47.961 237.965 47.883C237.869 47.805 237.797 47.706 237.749 47.586L236.543 44.472H230.756L229.55 47.586C229.514 47.694 229.445 47.79 229.343 47.874C229.241 47.958 229.112 48 228.956 48H227.615L232.772 35.103H234.536L239.693 48ZM146.397 57.103V70H144.651V64.132H137.694V70H135.948V57.103H137.694V62.854H144.651V57.103H146.397ZM156.525 65.212L154.5 59.965C154.44 59.809 154.377 59.629 154.311 59.425C154.245 59.215 154.182 58.993 154.122 58.759C153.996 59.245 153.867 59.65 153.735 59.974L151.71 65.212H156.525ZM160.161 70H158.811C158.655 70 158.529 69.961 158.433 69.883C158.337 69.805 158.265 69.706 158.217 69.586L157.011 66.472H151.224L150.018 69.586C149.982 69.694 149.913 69.79 149.811 69.874C149.709 69.958 149.58 70 149.424 70H148.083L153.24 57.103H155.004L160.161 70ZM165.699 58.309C166.185 57.877 166.749 57.547 167.391 57.319C168.033 57.091 168.762 56.977 169.578 56.977C170.244 56.977 170.841 57.058 171.369 57.22C171.903 57.382 172.356 57.61 172.728 57.904C173.1 58.198 173.385 58.546 173.583 58.948C173.787 59.35 173.889 59.791 173.889 60.271C173.889 60.919 173.727 61.489 173.403 61.981C173.085 62.473 172.635 62.854 172.053 63.124C172.383 63.262 172.683 63.433 172.953 63.637C173.223 63.835 173.454 64.06 173.646 64.312C173.844 64.564 173.994 64.84 174.096 65.14C174.204 65.44 174.258 65.755 174.258 66.085C174.258 66.649 174.153 67.177 173.943 67.669C173.733 68.161 173.427 68.59 173.025 68.956C172.629 69.316 172.14 69.601 171.558 69.811C170.976 70.021 170.313 70.126 169.569 70.126C168.645 70.126 167.814 69.976 167.076 69.676C166.338 69.37 165.705 68.959 165.177 68.443L165.681 67.615C165.729 67.549 165.789 67.495 165.861 67.453C165.933 67.405 166.011 67.381 166.095 67.381C166.221 67.381 166.371 67.45 166.545 67.588C166.719 67.72 166.941 67.867 167.211 68.029C167.481 68.191 167.808 68.341 168.192 68.479C168.582 68.611 169.056 68.677 169.614 68.677C170.088 68.677 170.511 68.62 170.883 68.506C171.261 68.392 171.576 68.227 171.828 68.011C172.086 67.795 172.281 67.531 172.413 67.219C172.551 66.907 172.62 66.556 172.62 66.166C172.62 65.83 172.554 65.521 172.422 65.239C172.296 64.957 172.11 64.717 171.864 64.519C171.618 64.315 171.318 64.159 170.964 64.051C170.61 63.937 170.211 63.88 169.767 63.88H168.003V62.449H169.695C170.061 62.449 170.4 62.404 170.712 62.314C171.03 62.224 171.3 62.092 171.522 61.918C171.75 61.744 171.927 61.531 172.053 61.279C172.185 61.027 172.251 60.739 172.251 60.415C172.251 60.121 172.191 59.851 172.071 59.605C171.951 59.359 171.777 59.149 171.549 58.975C171.321 58.795 171.042 58.657 170.712 58.561C170.382 58.465 170.007 58.417 169.587 58.417C169.101 58.417 168.687 58.468 168.345 58.57C168.003 58.672 167.715 58.786 167.481 58.912C167.247 59.032 167.055 59.143 166.905 59.245C166.761 59.347 166.635 59.398 166.527 59.398C166.431 59.398 166.353 59.377 166.293 59.335C166.233 59.293 166.176 59.224 166.122 59.128L165.699 58.309ZM184.755 68.578L184.746 70H176.799V57.103H184.746V58.525H178.545V62.809H183.567V64.177H178.545V68.578H184.755ZM190.995 63.79C191.493 63.79 191.931 63.724 192.309 63.592C192.693 63.46 193.014 63.277 193.272 63.043C193.536 62.803 193.734 62.518 193.866 62.188C193.998 61.858 194.064 61.495 194.064 61.099C194.064 60.277 193.809 59.635 193.299 59.173C192.795 58.711 192.027 58.48 190.995 58.48H188.925V63.79H190.995ZM190.995 57.103C191.811 57.103 192.519 57.199 193.119 57.391C193.725 57.577 194.226 57.844 194.622 58.192C195.018 58.54 195.312 58.96 195.504 59.452C195.702 59.944 195.801 60.493 195.801 61.099C195.801 61.699 195.696 62.248 195.486 62.746C195.276 63.244 194.967 63.673 194.559 64.033C194.157 64.393 193.656 64.675 193.056 64.879C192.462 65.077 191.775 65.176 190.995 65.176H188.925V70H187.188V57.103H190.995ZM208.295 70H206.729C206.555 70 206.405 69.955 206.279 69.865C206.159 69.769 206.045 69.631 205.937 69.451L202.526 64.726C202.37 64.492 202.202 64.33 202.022 64.24C201.842 64.144 201.596 64.096 201.284 64.096H199.736V70H197.999V57.103H199.736V62.755H201.077C201.347 62.755 201.575 62.713 201.761 62.629C201.953 62.545 202.142 62.38 202.328 62.134L205.703 57.598C205.793 57.454 205.901 57.337 206.027 57.247C206.159 57.151 206.312 57.103 206.486 57.103H207.953L204.056 62.404C203.762 62.818 203.384 63.103 202.922 63.259C203.24 63.343 203.507 63.478 203.723 63.664C203.945 63.844 204.155 64.096 204.353 64.42L208.295 70ZM216.906 65.212L214.881 59.965C214.821 59.809 214.758 59.629 214.692 59.425C214.626 59.215 214.563 58.993 214.503 58.759C214.377 59.245 214.248 59.65 214.116 59.974L212.091 65.212H216.906ZM220.542 70H219.192C219.036 70 218.91 69.961 218.814 69.883C218.718 69.805 218.646 69.706 218.598 69.586L217.392 66.472H211.605L210.399 69.586C210.363 69.694 210.294 69.79 210.192 69.874C210.09 69.958 209.961 70 209.805 70H208.464L213.621 57.103H215.385L220.542 70ZM232.215 70H230.469V58.48H226.203C226.119 60.136 226.005 61.573 225.861 62.791C225.723 64.009 225.552 65.05 225.348 65.914C225.15 66.778 224.922 67.483 224.664 68.029C224.412 68.569 224.133 68.995 223.827 69.307C223.527 69.619 223.203 69.832 222.855 69.946C222.507 70.06 222.138 70.117 221.748 70.117C221.424 70.117 221.175 70.087 221.001 70.027C220.827 69.973 220.74 69.889 220.74 69.775V68.668H221.37C221.61 68.668 221.847 68.623 222.081 68.533C222.315 68.437 222.54 68.248 222.756 67.966C222.972 67.684 223.176 67.282 223.368 66.76C223.56 66.238 223.734 65.548 223.89 64.69C224.046 63.832 224.181 62.785 224.295 61.549C224.409 60.307 224.496 58.825 224.556 57.103H232.215V70ZM242.341 65.212L240.316 59.965C240.256 59.809 240.193 59.629 240.127 59.425C240.061 59.215 239.998 58.993 239.938 58.759C239.812 59.245 239.683 59.65 239.551 59.974L237.526 65.212H242.341ZM245.977 70H244.627C244.471 70 244.345 69.961 244.249 69.883C244.153 69.805 244.081 69.706 244.033 69.586L242.827 66.472H237.04L235.834 69.586C235.798 69.694 235.729 69.79 235.627 69.874C235.525 69.958 235.396 70 235.24 70H233.899L239.056 57.103H240.82L245.977 70ZM257.494 70H255.766C255.634 70 255.529 69.967 255.451 69.901C255.379 69.829 255.319 69.751 255.271 69.667L251.815 64.249C251.767 64.393 251.713 64.516 251.653 64.618L248.287 69.667C248.227 69.751 248.161 69.829 248.089 69.901C248.023 69.967 247.93 70 247.81 70H246.19L250.627 63.376L246.37 57.103H248.107C248.233 57.103 248.326 57.124 248.386 57.166C248.446 57.208 248.5 57.268 248.548 57.346L251.914 62.512C251.956 62.386 252.019 62.248 252.103 62.098L255.28 57.382C255.328 57.298 255.385 57.232 255.451 57.184C255.517 57.13 255.595 57.103 255.685 57.103H257.35L253.075 63.295L257.494 70Z" fill="white"/>
<path d="M39.0421 55.967L15.4822 54.1443L18.9601 79.0186L39.0421 55.967Z" fill="#0D0D0D"/>
<path d="M54.6365 87.0598L39.0421 55.967L18.9601 79.0186L54.6365 87.0598Z" fill="#171719"/>
<path d="M69.6699 55.967H39.0421L54.6365 87.0598L69.6699 55.967Z" fill="#191919"/>
<path d="M54.6365 87.0598L87.6203 78.1608L69.6699 55.967L54.6365 87.0598Z" fill="#1B1B1D"/>
<path d="M87.6203 78.1608L91.6591 54.1443L69.6699 55.967L87.6203 78.1608Z" fill="#131313"/>
<path d="M104 52L91.6591 54.1443L87.6203 78.1608L104 52Z" fill="#2C2C2E"/>
<path d="M93.0054 83.2L104 52L87.6203 78.1608L93.0054 83.2Z" fill="#4E4E50"/>
<path d="M9.87271 83.2L32.8716 98.532L18.9601 79.0186L9.87271 83.2Z" fill="#4D4D4F"/>
<path d="M32.8716 98.532L54.6365 87.0598L18.9601 79.0186L32.8716 98.532Z" fill="#29292B"/>
<path d="M71.1284 97.7814L54.6365 87.0598L32.8716 98.532L71.1284 97.7814Z" fill="#39393B"/>
<path d="M71.1284 97.7814L87.6203 78.1608L54.6365 87.0598L71.1284 97.7814Z" fill="#2E2E30"/>
<path d="M71.1284 97.7814L93.0054 83.2L87.6203 78.1608L71.1284 97.7814Z" fill="#4E4E50"/>
<path d="M50.822 104L71.1284 97.7814L32.8716 98.532L50.822 104Z" fill="#4B4B4D"/>
<path d="M32.8716 7.93402L9.87271 18.7629L20.5307 27.233L32.8716 7.93402Z" fill="#3A3A3C"/>
<path d="M9.87271 18.7629L0 52L20.5307 27.233L9.87271 18.7629Z" fill="#1E1E20"/>
<path d="M53.5146 22.1938L32.8716 7.93402L20.5307 27.233L53.5146 22.1938Z" fill="#6B6B6D"/>
<path d="M53.5146 22.1938L20.5307 27.233L39.0421 55.967L53.5146 22.1938Z" fill="#080808"/>
<path d="M71.1284 7.93402L32.8716 7.93402L53.5146 22.1938L71.1284 7.93402Z" fill="#636363"/>
<path d="M69.6699 55.967L53.5146 22.1938L39.0421 55.967H69.6699Z" fill="#1D1D1D"/>
<path d="M86.3862 27.233L71.1284 7.93402L53.5146 22.1938L86.3862 27.233Z" fill="#222224"/>
<path d="M69.6699 55.967L86.3862 27.233L53.5146 22.1938L69.6699 55.967Z" fill="#19191B"/>
<path d="M93.0054 18.7629L71.1284 5.78969V7.93402L86.3862 27.233L93.0054 18.7629Z" fill="#5D5C61"/>
<path d="M91.6591 54.1443L86.3862 27.233L69.6699 55.967L91.6591 54.1443Z" fill="#191919"/>
<path d="M31.4132 5.78969L9.87271 18.7629L32.8716 7.93402L31.4132 5.78969Z" fill="#535154"/>
<path d="M50.822 0L31.4132 5.78969L32.8716 7.93402L50.822 0Z" fill="#535154"/>
<path d="M104 52L86.3862 27.233L91.6591 54.1443L104 52Z" fill="#2F2F31"/>
<path d="M71.1284 5.78969L50.822 0L71.1284 7.93402V5.78969Z" fill="#626065"/>
<path d="M104 52L93.0054 18.7629L86.3862 27.233L104 52Z" fill="#4A4A4C"/>
<path d="M93.0054 18.7629L71.1284 5.78969V7.93402L86.3862 27.233L93.0054 18.7629Z" fill="#5D5C61"/>
<path d="M0 52L9.87271 83.2L18.9601 79.0186L0 52Z" fill="#3B3B3D"/>
<path d="M104 52L93.0054 18.7629L86.3862 27.233L104 52Z" fill="#4A4A4C"/>
<path d="M0 52L18.9601 79.0186L15.4822 54.1443L0 52Z" fill="#262628"/>
<path d="M50.822 0L32.8716 7.93402L71.1284 7.93402L50.822 0Z" fill="#89898B"/>
<path d="M39.0421 55.967L20.5307 27.233L15.4822 54.1443L39.0421 55.967Z" fill="#0C0C0C"/>
<path d="M20.5307 27.233L0 52L15.4822 54.1443L20.5307 27.233Z" fill="#0E0A07"/>
<g filter="url(#filter0_d)">
<path d="M63.9394 75.4H77.1353L59.2024 29.4667H45.6681L27.7353 75.4H40.9311L43.9763 67.1976H60.8942L63.9394 75.4ZM57.849 58.6671H47.0216L52.4353 43.2467L57.849 58.6671Z" fill="black"/>
<path d="M63.9394 76H63.5221L63.3769 75.6088L60.4769 67.7976H44.3936L41.4936 75.6088L41.3484 76H40.9311H27.7353H26.8569L27.1763 75.1818L45.1092 29.2485L45.2583 28.8667H45.6681H59.2024H59.6122L59.7613 29.2485L77.6942 75.1818L78.0136 76H77.1353H63.9394ZM57.0024 58.0671L52.4353 45.058L47.8681 58.0671H57.0024Z" stroke="#FF2300" stroke-width="1.2"/>
</g>
<defs>
<filter id="filter0_d" x="20.9785" y="25.2667" width="62.9134" height="58.3333" filterUnits="userSpaceOnUse" color-interpolation-filters="sRGB">
<feFlood flood-opacity="0" result="BackgroundImageFix"/>
<feColorMatrix in="SourceAlpha" type="matrix" values="0 0 0 0 0 0 0 0 0 0 0 0 0 0 0 0 0 0 127 0"/>
<feOffset dy="2"/>
<feGaussianBlur stdDeviation="2.5"/>
<feColorMatrix type="matrix" values="0 0 0 0 1 0 0 0 0 0 0 0 0 0 0 0 0 0 1 0"/>
<feBlend mode="normal" in2="BackgroundImageFix" result="effect1_dropShadow"/>
<feBlend mode="normal" in="SourceGraphic" in2="effect1_dropShadow" result="shape"/>
</filter>
</defs>
</svg>
